# xmcd CD database file
#
# Track frame offsets:
#	150
#	10515
#	24440
#	34890
#	47932
#	58372
#	68800
#	81462
#	92070
#	103175
#	117245
#	130380
#
# Disc length: 1896 seconds
#
# Revision: 5
# Processed by: cddbd v1.5.2PL0 Copyright (c) Steve Scherf et al.
# Submitted via: CDex 1.51
#
DISCID=a607660c
DTITLE=Otis Redding - Love Man
DYEAR=1969
DGENRE=Soul
TTITLE0=I'm A Changed Man
TTITLE1=(Your Love Has Lifted Me) Higher And Higher
TTITLE2=That's A Good Idea
TTITLE3=I'll Let Nothing Separate Us
TTITLE4=Direct Me
TTITLE5=Love Man
TTITLE6=Groovin' Time
TTITLE7=Your Feeling Is Mine
TTITLE8=Got To Get Myself Together
TTITLE9=Free Me
TTITLE10=A Lover's Question
TTITLE11=Look At That Girl
EXTD=YEAR: 1969
EXTT0=
EXTT1=
EXTT2=
EXTT3=
EXTT4=
EXTT5=
EXTT6=
EXTT7=
EXTT8=
EXTT9=
EXTT10=
EXTT11=
PLAYORDER=
